<?xml version="1.0" encoding="UTF-8" standalone="no"?>
<!DOCTYPE svg PUBLIC "-//W3C//DTD SVG 1.1//EN"
 "http://www.w3.org/Graphics/SVG/1.1/DTD/svg11.dtd">
<!-- Generated by graphviz version 2.40.1 (20161225.0304)
 -->
<!-- Title: graphique1 Pages: 1 -->
<svg width="188pt" height="392pt"
 viewBox="0.00 0.00 188.00 392.00" xmlns="http://www.w3.org/2000/svg" xmlns:xlink="http://www.w3.org/1999/xlink">
<g id="graph0" class="graph" transform="scale(1 1) rotate(0) translate(4 388)">
<title>graphique1</title>
<polygon fill="#ffffff" stroke="transparent" points="-4,4 -4,-388 184,-388 184,4 -4,4"/>
<!-- 0 -->
<g id="node1" class="node">
<title>0</title>
<ellipse fill="none" stroke="#000000" cx="72" cy="-366" rx="18" ry="18"/>
<text text-anchor="middle" x="72" y="-362.3" font-family="Times,serif" font-size="14.00" fill="#000000">0</text>
</g>
<!-- 2 -->
<g id="node2" class="node">
<title>2</title>
<ellipse fill="none" stroke="#000000" cx="18" cy="-192" rx="18" ry="18"/>
<text text-anchor="middle" x="18" y="-188.3" font-family="Times,serif" font-size="14.00" fill="#000000">2</text>
</g>
<!-- 0&#45;&gt;2 -->
<g id="edge1" class="edge">
<title>0&#45;&gt;2</title>
<path fill="none" stroke="#000000" d="M58.983,-353.1198C46.8886,-340.1986 29.6311,-319.0932 22,-297 13.3896,-272.0714 13.2288,-241.8111 14.72,-220.1919"/>
<polygon fill="#000000" stroke="#000000" points="18.2232,-220.3025 15.5845,-210.0415 11.2484,-219.7084 18.2232,-220.3025"/>
<text text-anchor="middle" x="33.5" y="-275.3" font-family="Times,serif" font-size="14.00" fill="#000000">8/8</text>
</g>
<!-- 3 -->
<g id="node3" class="node">
<title>3</title>
<ellipse fill="none" stroke="#000000" cx="72" cy="-279" rx="18" ry="18"/>
<text text-anchor="middle" x="72" y="-275.3" font-family="Times,serif" font-size="14.00" fill="#000000">3</text>
</g>
<!-- 0&#45;&gt;3 -->
<g id="edge2" class="edge">
<title>0&#45;&gt;3</title>
<path fill="none" stroke="#000000" d="M72,-347.9735C72,-336.1918 72,-320.5607 72,-307.1581"/>
<polygon fill="#000000" stroke="#000000" points="75.5001,-307.0033 72,-297.0034 68.5001,-307.0034 75.5001,-307.0033"/>
<text text-anchor="middle" x="92.5" y="-318.8" font-family="Times,serif" font-size="14.00" fill="#000000">10/10</text>
</g>
<!-- 1 -->
<g id="node4" class="node">
<title>1</title>
<ellipse fill="none" stroke="#000000" cx="137" cy="-192" rx="18" ry="18"/>
<text text-anchor="middle" x="137" y="-188.3" font-family="Times,serif" font-size="14.00" fill="#000000">1</text>
</g>
<!-- 0&#45;&gt;1 -->
<g id="edge3" class="edge">
<title>0&#45;&gt;1</title>
<path fill="none" stroke="#000000" d="M88.0173,-356.9724C97.8133,-350.6458 109.8055,-341.3126 117,-330 138.1739,-296.7064 140.4934,-249.8701 139.3836,-220.2302"/>
<polygon fill="#000000" stroke="#000000" points="142.8735,-219.9456 138.8482,-210.1452 135.8834,-220.3168 142.8735,-219.9456"/>
<text text-anchor="middle" x="148.5" y="-275.3" font-family="Times,serif" font-size="14.00" fill="#000000">7/7</text>
</g>
<!-- 4 -->
<g id="node5" class="node">
<title>4</title>
<ellipse fill="none" stroke="#000000" cx="76" cy="-105" rx="18" ry="18"/>
<text text-anchor="middle" x="76" y="-101.3" font-family="Times,serif" font-size="14.00" fill="#000000">4</text>
</g>
<!-- 2&#45;&gt;4 -->
<g id="edge4" class="edge">
<title>2&#45;&gt;4</title>
<path fill="none" stroke="#000000" d="M17.4941,-173.8297C17.9922,-163.523 19.9922,-150.773 26,-141 31.8818,-131.432 41.3501,-123.6565 50.4733,-117.8128"/>
<polygon fill="#000000" stroke="#000000" points="52.4786,-120.6944 59.336,-112.6181 48.9388,-114.6553 52.4786,-120.6944"/>
<text text-anchor="middle" x="42" y="-144.8" font-family="Times,serif" font-size="14.00" fill="#000000">9/12</text>
</g>
<!-- 3&#45;&gt;2 -->
<g id="edge6" class="edge">
<title>3&#45;&gt;2</title>
<path fill="none" stroke="#000000" d="M57.7101,-267.978C50.0595,-261.4356 41.0026,-252.5652 35,-243 30.5351,-235.8851 27.1085,-227.4695 24.5419,-219.5471"/>
<polygon fill="#000000" stroke="#000000" points="27.8925,-218.5344 21.7375,-209.9108 21.1713,-220.4905 27.8925,-218.5344"/>
<text text-anchor="middle" x="46.5" y="-231.8" font-family="Times,serif" font-size="14.00" fill="#000000">1/2</text>
</g>
<!-- 3&#45;&gt;1 -->
<g id="edge7" class="edge">
<title>3&#45;&gt;1</title>
<path fill="none" stroke="#000000" d="M81.6391,-263.4852C88.1991,-253.1991 97.2478,-239.5259 106,-228 109.7706,-223.0344 114.0174,-217.8624 118.1304,-213.0388"/>
<polygon fill="#000000" stroke="#000000" points="120.8975,-215.1906 124.8183,-205.3479 115.6153,-210.5973 120.8975,-215.1906"/>
<text text-anchor="middle" x="122" y="-231.8" font-family="Times,serif" font-size="14.00" fill="#000000">4/11</text>
</g>
<!-- 3&#45;&gt;4 -->
<g id="edge5" class="edge">
<title>3&#45;&gt;4</title>
<path fill="none" stroke="#000000" d="M72.4205,-260.7078C73.1185,-230.3436 74.5213,-169.3226 75.3484,-133.3464"/>
<polygon fill="#000000" stroke="#000000" points="78.8543,-133.1249 75.5851,-123.0471 71.8561,-132.964 78.8543,-133.1249"/>
<text text-anchor="middle" x="85.5" y="-188.3" font-family="Times,serif" font-size="14.00" fill="#000000">5/5</text>
</g>
<!-- 1&#45;&gt;4 -->
<g id="edge8" class="edge">
<title>1&#45;&gt;4</title>
<path fill="none" stroke="#000000" d="M124.6262,-178.7937C118.6943,-172.1806 111.6654,-163.9136 106,-156 100.1156,-147.7805 94.3223,-138.3442 89.4195,-129.8412"/>
<polygon fill="#000000" stroke="#000000" points="92.4435,-128.0782 84.4867,-121.0825 86.3443,-131.5132 92.4435,-128.0782"/>
<text text-anchor="middle" x="117.5" y="-144.8" font-family="Times,serif" font-size="14.00" fill="#000000">0/1</text>
</g>
<!-- 5 -->
<g id="node6" class="node">
<title>5</title>
<ellipse fill="none" stroke="#000000" cx="108" cy="-18" rx="18" ry="18"/>
<text text-anchor="middle" x="108" y="-14.3" font-family="Times,serif" font-size="14.00" fill="#000000">5</text>
</g>
<!-- 1&#45;&gt;5 -->
<g id="edge9" class="edge">
<title>1&#45;&gt;5</title>
<path fill="none" stroke="#000000" d="M138.6021,-173.6686C140.3628,-146.7805 141.4761,-95.3565 129,-54 127.7305,-49.7917 125.8809,-45.5534 123.798,-41.5363"/>
<polygon fill="#000000" stroke="#000000" points="126.7141,-39.5872 118.6779,-32.6828 120.6544,-43.0917 126.7141,-39.5872"/>
<text text-anchor="middle" x="159.5" y="-101.3" font-family="Times,serif" font-size="14.00" fill="#000000">11/21</text>
</g>
<!-- 4&#45;&gt;5 -->
<g id="edge10" class="edge">
<title>4&#45;&gt;5</title>
<path fill="none" stroke="#000000" d="M78.9419,-87.1717C80.8936,-77.2108 83.8652,-64.6891 88,-54 89.4953,-50.1345 91.3388,-46.1737 93.2963,-42.359"/>
<polygon fill="#000000" stroke="#000000" points="96.5174,-43.7648 98.2634,-33.3148 90.3818,-40.3951 96.5174,-43.7648"/>
<text text-anchor="middle" x="108.5" y="-57.8" font-family="Times,serif" font-size="14.00" fill="#000000">14/14</text>
</g>
</g>
</svg>
