<?xml version="1.0" encoding="UTF-8" standalone="no"?>
<!DOCTYPE svg PUBLIC "-//W3C//DTD SVG 1.1//EN"
 "http://www.w3.org/Graphics/SVG/1.1/DTD/svg11.dtd">
<!-- Generated by graphviz version 2.40.1 (20161225.0304)
 -->
<!-- Title: graphique1 Pages: 1 -->
<svg width="280pt" height="305pt"
 viewBox="0.00 0.00 280.00 305.00" xmlns="http://www.w3.org/2000/svg" xmlns:xlink="http://www.w3.org/1999/xlink">
<g id="graph0" class="graph" transform="scale(1 1) rotate(0) translate(4 301)">
<title>graphique1</title>
<polygon fill="#ffffff" stroke="transparent" points="-4,4 -4,-301 276,-301 276,4 -4,4"/>
<!-- 4 -->
<g id="node1" class="node">
<title>4</title>
<ellipse fill="none" stroke="#000000" cx="90" cy="-279" rx="18" ry="18"/>
<text text-anchor="middle" x="90" y="-275.3" font-family="Times,serif" font-size="14.00" fill="#000000">4</text>
</g>
<!-- 5 -->
<g id="node2" class="node">
<title>5</title>
<ellipse fill="none" stroke="#000000" cx="18" cy="-105" rx="18" ry="18"/>
<text text-anchor="middle" x="18" y="-101.3" font-family="Times,serif" font-size="14.00" fill="#000000">5</text>
</g>
<!-- 4&#45;&gt;5 -->
<g id="edge1" class="edge">
<title>4&#45;&gt;5</title>
<path fill="none" stroke="#000000" d="M77.9541,-265.3725C66.7415,-252.0678 50.2604,-230.8368 40,-210 28.9421,-187.5436 29.0363,-180.5195 24,-156 22.4882,-148.6398 21.3215,-140.5981 20.4366,-133.1214"/>
<polygon fill="#000000" stroke="#000000" points="23.9043,-132.6316 19.3665,-123.0578 16.9436,-133.3718 23.9043,-132.6316"/>
<text text-anchor="middle" x="51.5" y="-188.3" font-family="Times,serif" font-size="14.00" fill="#000000">4/4</text>
</g>
<!-- 3 -->
<g id="node3" class="node">
<title>3</title>
<ellipse fill="none" stroke="#000000" cx="90" cy="-192" rx="18" ry="18"/>
<text text-anchor="middle" x="90" y="-188.3" font-family="Times,serif" font-size="14.00" fill="#000000">3</text>
</g>
<!-- 4&#45;&gt;3 -->
<g id="edge2" class="edge">
<title>4&#45;&gt;3</title>
<path fill="none" stroke="#000000" d="M90,-260.9735C90,-249.1918 90,-233.5607 90,-220.1581"/>
<polygon fill="#000000" stroke="#000000" points="93.5001,-220.0033 90,-210.0034 86.5001,-220.0034 93.5001,-220.0033"/>
<text text-anchor="middle" x="101.5" y="-231.8" font-family="Times,serif" font-size="14.00" fill="#000000">7/7</text>
</g>
<!-- 3&#45;&gt;5 -->
<g id="edge3" class="edge">
<title>3&#45;&gt;5</title>
<path fill="none" stroke="#000000" d="M73.3889,-184.8324C61.1787,-178.7811 45.0301,-169.0177 35,-156 29.7931,-149.2422 26.1373,-140.8083 23.5886,-132.7568"/>
<polygon fill="#000000" stroke="#000000" points="26.9155,-131.6522 20.919,-122.9176 20.1597,-133.4852 26.9155,-131.6522"/>
<text text-anchor="middle" x="55.5" y="-144.8" font-family="Times,serif" font-size="14.00" fill="#000000">19/20</text>
</g>
<!-- 2 -->
<g id="node4" class="node">
<title>2</title>
<ellipse fill="none" stroke="#000000" cx="167" cy="-105" rx="18" ry="18"/>
<text text-anchor="middle" x="167" y="-101.3" font-family="Times,serif" font-size="14.00" fill="#000000">2</text>
</g>
<!-- 3&#45;&gt;2 -->
<g id="edge4" class="edge">
<title>3&#45;&gt;2</title>
<path fill="none" stroke="#000000" d="M99.0402,-175.9907C105.3474,-165.4959 114.3393,-151.7758 124,-141 129.9407,-134.3736 137.1211,-127.8896 143.8985,-122.2911"/>
<polygon fill="#000000" stroke="#000000" points="146.4989,-124.6948 152.1441,-115.7292 142.14,-119.2175 146.4989,-124.6948"/>
<text text-anchor="middle" x="135.5" y="-144.8" font-family="Times,serif" font-size="14.00" fill="#000000">0/9</text>
</g>
<!-- 2&#45;&gt;4 -->
<g id="edge5" class="edge">
<title>2&#45;&gt;4</title>
<path fill="none" stroke="#000000" d="M162.41,-122.6992C155.0214,-149.6635 139.0536,-202.201 117,-243 114.4192,-247.7744 111.2509,-252.6085 108.0039,-257.1185"/>
<polygon fill="#000000" stroke="#000000" points="105.0583,-255.2101 101.7969,-265.2905 110.6326,-259.4441 105.0583,-255.2101"/>
<text text-anchor="middle" x="165.5" y="-188.3" font-family="Times,serif" font-size="14.00" fill="#000000">11/14</text>
</g>
<!-- 1 -->
<g id="node5" class="node">
<title>1</title>
<ellipse fill="none" stroke="#000000" cx="163" cy="-18" rx="18" ry="18"/>
<text text-anchor="middle" x="163" y="-14.3" font-family="Times,serif" font-size="14.00" fill="#000000">1</text>
</g>
<!-- 2&#45;&gt;1 -->
<g id="edge6" class="edge">
<title>2&#45;&gt;1</title>
<path fill="none" stroke="#000000" d="M154.3717,-91.7776C149.1557,-85.4162 143.7041,-77.3626 141,-69 137.9173,-59.4665 140.9614,-49.2702 145.6665,-40.5196"/>
<polygon fill="#000000" stroke="#000000" points="148.6515,-42.3473 150.9839,-32.0124 142.7157,-38.6371 148.6515,-42.3473"/>
<text text-anchor="middle" x="152.5" y="-57.8" font-family="Times,serif" font-size="14.00" fill="#000000">2/4</text>
</g>
<!-- 1&#45;&gt;3 -->
<g id="edge7" class="edge">
<title>1&#45;&gt;3</title>
<path fill="none" stroke="#000000" d="M148.3458,-28.8353C133.0601,-41.0707 109.8445,-62.4968 99,-87 88.2315,-111.3314 86.7934,-141.9038 87.5599,-163.7742"/>
<polygon fill="#000000" stroke="#000000" points="84.0796,-164.2407 88.1029,-174.0419 91.0698,-163.871 84.0796,-164.2407"/>
<text text-anchor="middle" x="119.5" y="-101.3" font-family="Times,serif" font-size="14.00" fill="#000000">12/12</text>
</g>
<!-- 1&#45;&gt;2 -->
<g id="edge8" class="edge">
<title>1&#45;&gt;2</title>
<path fill="none" stroke="#000000" d="M163.8277,-36.0034C164.3692,-47.7801 165.0878,-63.4102 165.7042,-76.8156"/>
<polygon fill="#000000" stroke="#000000" points="162.2155,-77.1449 166.1712,-86.9735 169.2081,-76.8233 162.2155,-77.1449"/>
<text text-anchor="middle" x="181" y="-57.8" font-family="Times,serif" font-size="14.00" fill="#000000">0/10</text>
</g>
<!-- 0 -->
<g id="node6" class="node">
<title>0</title>
<ellipse fill="none" stroke="#000000" cx="244" cy="-192" rx="18" ry="18"/>
<text text-anchor="middle" x="244" y="-188.3" font-family="Times,serif" font-size="14.00" fill="#000000">0</text>
</g>
<!-- 0&#45;&gt;2 -->
<g id="edge9" class="edge">
<title>0&#45;&gt;2</title>
<path fill="none" stroke="#000000" d="M228.0312,-182.8022C217.7,-176.282 204.4623,-166.7966 195,-156 188.5183,-148.6042 182.9169,-139.4574 178.4637,-130.9611"/>
<polygon fill="#000000" stroke="#000000" points="181.4966,-129.1973 173.9381,-121.773 175.217,-132.2903 181.4966,-129.1973"/>
<text text-anchor="middle" x="215.5" y="-144.8" font-family="Times,serif" font-size="14.00" fill="#000000">13/13</text>
</g>
<!-- 0&#45;&gt;1 -->
<g id="edge10" class="edge">
<title>0&#45;&gt;1</title>
<path fill="none" stroke="#000000" d="M242.1687,-173.8503C240.9233,-164.014 238.954,-151.7136 236,-141 224.9216,-100.821 224.4457,-88.4585 201,-54 196.5716,-47.4915 190.7891,-41.2657 185.076,-35.8764"/>
<polygon fill="#000000" stroke="#000000" points="187.2584,-33.1333 177.4621,-29.098 182.6039,-38.3616 187.2584,-33.1333"/>
<text text-anchor="middle" x="251.5" y="-101.3" font-family="Times,serif" font-size="14.00" fill="#000000">10/16</text>
</g>
</g>
</svg>
